<?xml version="1.0" encoding="UTF-8" standalone="no"?>
<!-- Created with Inkscape (http://www.inkscape.org/) -->

<svg
   width="259.82083mm"
   height="77.258331mm"
   viewBox="0 0 259.82083 77.258331"
   version="1.1"
   id="svg1"
   inkscape:version="1.3 (0e150ed6c4, 2023-07-21)"
   sodipodi:docname="logo_big2.svg"
   xmlns:inkscape="http://www.inkscape.org/namespaces/inkscape"
   xmlns:sodipodi="http://sodipodi.sourceforge.net/DTD/sodipodi-0.dtd"
   xmlns="http://www.w3.org/2000/svg"
   xmlns:svg="http://www.w3.org/2000/svg">
  <sodipodi:namedview
     id="namedview1"
     pagecolor="#ffffff"
     bordercolor="#000000"
     borderopacity="0.25"
     inkscape:showpageshadow="2"
     inkscape:pageopacity="0.0"
     inkscape:pagecheckerboard="0"
     inkscape:deskcolor="#d1d1d1"
     inkscape:document-units="mm"
     inkscape:zoom="0.69219276"
     inkscape:cx="259.32083"
     inkscape:cy="124.96519"
     inkscape:window-width="1920"
     inkscape:window-height="991"
     inkscape:window-x="-9"
     inkscape:window-y="-9"
     inkscape:window-maximized="1"
     inkscape:current-layer="layer1" />
  <defs
     id="defs1">
    <rect
       x="62.121426"
       y="47.67458"
       width="522.97571"
       height="108.35132"
       id="rect1" />
  </defs>
  <g
     inkscape:label="Layer 1"
     inkscape:groupmode="layer"
     id="layer1"
     style="display:inline">
    <path
       d="M 68.841094,134.59037 V 65.470373 h 28.56 q 1.008,0 2.592,0.096 1.583996,0.048 2.927996,0.288 6,0.912 9.888,3.984 3.936,3.072 5.808,7.776 1.92,4.656 1.92,10.368 0,8.448 -4.272,14.543997 -4.272,6.048 -13.104,7.488 l -4.943996,0.432 h -17.808 v 24.144 z m 39.695996,0 -13.631996,-28.128 11.759996,-2.592 14.976,30.72 z M 80.409094,99.646373 h 16.512 q 0.96,0 2.16,-0.096 1.199996,-0.096 2.207996,-0.384 2.88,-0.72 4.512,-2.544 1.68,-1.824 2.352,-4.128 0.72,-2.304 0.72,-4.512 0,-2.208 -0.72,-4.512 -0.672,-2.352 -2.352,-4.176 -1.632,-1.824 -4.512,-2.544 -1.008,-0.288 -2.207996,-0.336 -1.2,-0.096 -2.16,-0.096 h -16.512 z m 67.343986,34.943997 -21.792,-69.119997 h 11.904 l 18.24,57.887997 18.48,-57.887997 h 11.904 l -21.792,69.119997 z m 40.17591,0 23.424,-34.943997 -22.752,-34.176 h 14.16 l 15.744,24.336 15.6,-24.336 h 14.256 l -22.752,34.176 23.328,34.943997 h -14.16 l -16.272,-25.104 -16.32,25.104 z m 67.72804,-30.048 v -9.071997 h 28.8 v 9.071997 z m 41.28001,30.048 V 65.470373 h 27.408 q 7.008,0 11.472,2.832 4.512,2.784 6.672,7.152 2.208,4.368 2.208,9.024 0,5.712 -2.736,9.696 -2.688,3.984 -7.344,5.376 v -2.4 q 6.528,1.488 9.888,6.191997 3.408,4.704 3.408,10.704 0,6.144 -2.352,10.752 -2.352,4.608 -7.008,7.2 -4.608,2.592 -11.424,2.592 z m 11.712,-10.896 h 17.04 q 3.024,0 5.424,-1.2 2.4,-1.248 3.744,-3.456 1.392,-2.256 1.392,-5.328 0,-2.784 -1.2,-4.992 -1.2,-2.208 -3.504,-3.504 -2.304,-1.344 -5.52,-1.344 h -17.376 z m 0,-30.623997 h 15.552 q 2.496,0 4.464,-0.96 1.968,-0.96 3.12,-2.832 1.152,-1.872 1.152,-4.608 0,-3.6 -2.304,-6 -2.304,-2.4 -6.432,-2.4 h -15.552 z m 68.30405,43.007997 q -5.76,0 -9.504,-1.92 -3.744,-1.92 -5.952,-4.896 -2.208,-2.976 -3.264,-6.336 -1.056,-3.36 -1.392,-6.336 -0.288,-3.024 -0.288,-4.896 V 82.750373 h 11.712 v 24.959997 q 0,2.4 0.336,5.424 0.336,2.976 1.536,5.76 1.248,2.736 3.648,4.512 2.448,1.776 6.576,1.776 2.208,0 4.368,-0.72 2.16,-0.72 3.888,-2.448 1.776,-1.776 2.832,-4.848 1.056,-3.072 1.056,-7.776 l 6.864,2.928 q 0,6.624 -2.592,12 -2.544,5.376 -7.536,8.592 -4.992,3.168 -12.288,3.168 z m 16.944,-1.488 v -16.08 h -1.392 V 82.750373 h 11.616 v 51.839997 z m 24.62397,-59.711997 v -10.608 h 11.568 v 10.608 z m 0,59.711997 V 82.750373 h 11.568 v 51.839997 z m 26.92804,0 V 64.030373 h 11.568 v 70.559997 z m 46.75204,1.44 q -7.152,0 -12.48,-3.6 -5.328,-3.6 -8.256,-9.792 -2.928,-6.192 -2.928,-13.968 0,-7.872 2.928,-14.015997 2.976,-6.192 8.4,-9.744 5.424,-3.6 12.768,-3.6 7.392,0 12.384,3.6 5.04,3.552 7.632,9.744 2.592,6.191997 2.592,14.015997 0,7.728 -2.592,13.968 -2.592,6.192 -7.728,9.792 -5.136,3.6 -12.72,3.6 z m 1.776,-10.368 q 4.656,0 7.488,-2.112 2.88,-2.16 4.176,-6 1.344,-3.84 1.344,-8.88 0,-5.088 -1.344,-8.879997 -1.296,-3.84 -4.08,-5.952 -2.784,-2.16 -7.2,-2.16 -4.656,0 -7.68,2.304 -3.024,2.256 -4.464,6.143997 -1.44,3.84 -1.44,8.544 0,4.752 1.392,8.64 1.44,3.84 4.368,6.096 2.928,2.256 7.44,2.256 z m 13.008,8.928 V 98.206373 h -1.44 v -32.736 h 11.664 v 69.119997 z m 43.68006,1.44 q -9.6,0 -15.6,-4.32 -6,-4.32 -7.296,-12.144 l 11.808,-1.824 q 0.912,3.84 4.032,6.048 3.12,2.208 7.872,2.208 4.176,0 6.432,-1.632 2.304,-1.68 2.304,-4.56 0,-1.776 -0.864,-2.832 -0.816,-1.104 -3.648,-2.112 -2.832,-1.008 -8.688,-2.544 -6.528,-1.728 -10.368,-3.696 -3.84,-2.016 -5.52,-4.752 -1.68,-2.736 -1.68,-6.623997 0,-4.848 2.544,-8.448 2.544,-3.6 7.104,-5.52 4.56,-1.968 10.752,-1.968 6.048,0 10.704,1.872 4.704,1.872 7.584,5.328 2.88,3.456 3.552,8.112 l -11.808,2.112 q -0.432,-3.312 -3.024,-5.232 -2.544,-1.92 -6.816,-2.16 -4.08,-0.24 -6.576,1.248 -2.496,1.44 -2.496,4.08 0,1.488 1.008,2.544 1.008,1.055997 4.032,2.111997 3.072,1.056 9.12,2.592 6.192,1.584 9.888,3.648 3.744,2.016 5.376,4.848 1.68,2.832 1.68,6.864 0,7.824 -5.712,12.288 -5.664,4.464 -15.696,4.464 z"
       id="text1"
       style="font-size:96px;font-family:Manrope;-inkscape-font-specification:Manrope;text-align:justify;white-space:pre"
       transform="matrix(0.35801029,0,0,0.35477417,16.120509,3.3987922)"
       aria-label="RVX-Builds" />
  </g>
</svg>
